<svg xmlns="http://www.w3.org/2000/svg" xmlns:svg="http://www.w3.org/2000/svg" id="svg17038" width="54.983" height="54.968" version="1.0"><metadata id="metadata20"/><g id="layer1" transform="translate(378.07957,-56.701529)"><g id="logotype" transform="translate(0.4494891,0.3945659)"><g id="g17202"><g id="logo"><path style="fill:#117aca;fill-rule:nonzero;stroke:none" id="logo-ne" d="m -358.86107,56.307005 c -1.0725,0 -1.94124,0.868758 -1.94124,1.940002 l 0,13.606263 35.94124,0 -16.3675,-15.545007 -17.6325,-0.0013"/><path style="fill:#117aca;fill-rule:nonzero;stroke:none" id="logo-se" d="m -323.54607,75.969518 c 0,-1.073761 -0.8625,-1.938762 -1.94124,-1.938762 l -13.60251,0 0,35.942494 15.53749,-16.374985 0.006,-17.628747"/><path style="fill:#117aca;fill-rule:nonzero;stroke:none" id="logo-sw" d="m -343.21106,111.2745 c 1.07,0 1.93874,-0.87 1.93874,-1.94374 l 0,-13.601243 -35.9425,0 16.36999,15.542483 17.63377,0.002"/><path style="fill:#117aca;fill-rule:nonzero;stroke:none" id="logo-nw" d="m -378.52856,91.614507 c 0,1.072503 0.86874,1.946259 1.94374,1.946259 l 13.6,0 0,-35.944996 -15.54124,16.369991 -0.003,17.628746"/></g></g></g></g></svg>